<svg width="1600" height="900" viewBox="0 0 1600 900" fill="none" xmlns="http://www.w3.org/2000/svg">
  <defs>
    <linearGradient id="bg" x1="140" y1="70" x2="1490" y2="860" gradientUnits="userSpaceOnUse">
      <stop stop-color="#111827"/>
      <stop offset="1" stop-color="#020617"/>
    </linearGradient>
    <linearGradient id="panel" x1="122" y1="158" x2="1488" y2="776" gradientUnits="userSpaceOnUse">
      <stop stop-color="#0F172A"/>
      <stop offset="1" stop-color="#111827"/>
    </linearGradient>
  </defs>
  <rect width="1600" height="900" rx="40" fill="url(#bg)"/>
  <rect x="72" y="72" width="1456" height="756" rx="28" fill="#0B1220" stroke="#334155" stroke-width="2"/>
  <rect x="72" y="72" width="1456" height="72" rx="28" fill="#111827"/>
  <circle cx="122" cy="108" r="10" fill="#FB7185"/>
  <circle cx="154" cy="108" r="10" fill="#FBBF24"/>
  <circle cx="186" cy="108" r="10" fill="#34D399"/>
  <rect x="118" y="182" width="846" height="596" rx="24" fill="url(#panel)" stroke="#334155"/>
  <rect x="1000" y="182" width="482" height="596" rx="24" fill="#111827" stroke="#334155"/>
  <rect x="158" y="226" width="210" height="16" rx="8" fill="#1E293B"/>
  <rect x="158" y="274" width="522" height="16" rx="8" fill="#A78BFA"/>
  <rect x="158" y="314" width="628" height="16" rx="8" fill="#93C5FD"/>
  <rect x="158" y="354" width="598" height="16" rx="8" fill="#FDE68A"/>
  <rect x="158" y="394" width="544" height="16" rx="8" fill="#A7F3D0"/>
  <rect x="158" y="454" width="474" height="16" rx="8" fill="#A78BFA"/>
  <rect x="158" y="494" width="604" height="16" rx="8" fill="#93C5FD"/>
  <rect x="158" y="534" width="566" height="16" rx="8" fill="#FDE68A"/>
  <rect x="158" y="574" width="510" height="16" rx="8" fill="#A7F3D0"/>
  <rect x="158" y="634" width="330" height="16" rx="8" fill="#A78BFA"/>
  <rect x="158" y="674" width="408" height="16" rx="8" fill="#93C5FD"/>
  <rect x="1042" y="228" width="206" height="18" rx="9" fill="#1F2937"/>
  <rect x="1042" y="284" width="238" height="44" rx="14" fill="#0F172A" stroke="#22C55E"/>
  <rect x="1042" y="346" width="238" height="44" rx="14" fill="#0F172A" stroke="#38BDF8"/>
  <rect x="1042" y="408" width="238" height="44" rx="14" fill="#0F172A" stroke="#8B5CF6"/>
  <rect x="1042" y="486" width="398" height="172" rx="18" fill="#0B1220" stroke="#334155"/>
  <rect x="1078" y="530" width="212" height="14" rx="7" fill="#334155"/>
  <rect x="1078" y="562" width="304" height="14" rx="7" fill="#334155"/>
  <rect x="1078" y="594" width="280" height="14" rx="7" fill="#334155"/>
  <text x="122" y="744" fill="#94A3B8" font-family="Arial, sans-serif" font-size="28">Placeholder screenshot</text>
  <text x="122" y="782" fill="white" font-family="Arial, sans-serif" font-size="44" font-weight="700">Workflow code, config, and CLI authoring flow</text>
</svg>
