<svg width="1600" height="900" viewBox="0 0 1600 900" fill="none" xmlns="http://www.w3.org/2000/svg">
  <defs>
    <linearGradient id="bg" x1="160" y1="80" x2="1480" y2="860" gradientUnits="userSpaceOnUse">
      <stop stop-color="#0F172A"/>
      <stop offset="1" stop-color="#1E293B"/>
    </linearGradient>
    <linearGradient id="accent" x1="214" y1="178" x2="1210" y2="760" gradientUnits="userSpaceOnUse">
      <stop stop-color="#22C55E"/>
      <stop offset="0.5" stop-color="#38BDF8"/>
      <stop offset="1" stop-color="#8B5CF6"/>
    </linearGradient>
  </defs>
  <rect width="1600" height="900" rx="40" fill="url(#bg)"/>
  <rect x="72" y="72" width="1456" height="756" rx="28" fill="#0B1220" stroke="#334155" stroke-width="2"/>
  <rect x="72" y="72" width="1456" height="72" rx="28" fill="#111827"/>
  <circle cx="122" cy="108" r="10" fill="#FB7185"/>
  <circle cx="154" cy="108" r="10" fill="#FBBF24"/>
  <circle cx="186" cy="108" r="10" fill="#34D399"/>
  <rect x="116" y="186" width="260" height="592" rx="22" fill="#111827" stroke="#334155"/>
  <rect x="410" y="186" width="728" height="592" rx="22" fill="#0F172A" stroke="#334155"/>
  <rect x="1172" y="186" width="312" height="592" rx="22" fill="#111827" stroke="#334155"/>
  <rect x="146" y="224" width="188" height="18" rx="9" fill="#1F2937"/>
  <rect x="146" y="268" width="164" height="14" rx="7" fill="#334155"/>
  <rect x="146" y="300" width="204" height="14" rx="7" fill="#334155"/>
  <rect x="146" y="332" width="150" height="14" rx="7" fill="#334155"/>
  <rect x="1220" y="224" width="188" height="18" rx="9" fill="#1F2937"/>
  <rect x="1220" y="268" width="208" height="14" rx="7" fill="#334155"/>
  <rect x="1220" y="300" width="170" height="14" rx="7" fill="#334155"/>
  <rect x="1220" y="332" width="228" height="14" rx="7" fill="#334155"/>
  <rect x="494" y="300" width="170" height="88" rx="20" fill="#111827" stroke="#4F46E5" stroke-width="2"/>
  <rect x="782" y="236" width="186" height="88" rx="20" fill="#111827" stroke="#22C55E" stroke-width="2"/>
  <rect x="782" y="450" width="186" height="88" rx="20" fill="#111827" stroke="#38BDF8" stroke-width="2"/>
  <rect x="504" y="578" width="170" height="88" rx="20" fill="#111827" stroke="#F59E0B" stroke-width="2"/>
  <path d="M664 344C712 344 730 280 782 280" stroke="url(#accent)" stroke-width="8" stroke-linecap="round"/>
  <path d="M664 344C724 344 726 494 782 494" stroke="url(#accent)" stroke-width="8" stroke-linecap="round"/>
  <path d="M968 494C1038 494 1040 622 1112 622" stroke="url(#accent)" stroke-width="8" stroke-linecap="round"/>
  <rect x="1018" y="578" width="170" height="88" rx="20" fill="#111827" stroke="#8B5CF6" stroke-width="2"/>
  <text x="146" y="720" fill="#94A3B8" font-family="Arial, sans-serif" font-size="28">Placeholder screenshot</text>
  <text x="146" y="758" fill="white" font-family="Arial, sans-serif" font-size="44" font-weight="700">Workflow canvas and run detail UI</text>
</svg>
